HIERARCHY
ROOT Hips
{
	OFFSET	0.00	0.00	0.00
	CHANNELS 6 Xposition Yposition Zposition Zrotation Xrotation Yrotation
	JOINT Spine
	{
		OFFSET	 0.00	0.01	 0.00
		CHANNELS 3 Zrotation Xrotation Yrotation
		JOINT Spine1
		{
			OFFSET	 0.00	 2.45913012437421	 0.00
			CHANNELS 3 Zrotation Xrotation Yrotation
            JOINT Neck
            {
                OFFSET	 0.00	 2.48462964506057	 0.00
                CHANNELS 3 Zrotation Xrotation Yrotation
                JOINT Head
                {
                    OFFSET	 0.00	 0.927524780924562	 0.00
                    CHANNELS 3 Zrotation Xrotation Yrotation
                    End Site 
                    {
                        OFFSET	 0.00	 1.14999962169752	 0.00
                    }
                }
            }
			JOINT LeftShoulder
			{
				OFFSET	 0.00	 2.48462964506057	 0.00
				CHANNELS 3 Zrotation Xrotation Yrotation
				JOINT LeftUpArm
				{
					OFFSET	 0.00	 1.24881979654096	 0.00
					CHANNELS 3 Zrotation Xrotation Yrotation
					JOINT LeftForeArm
					{
						OFFSET	 0.00	2.59758046908119	 0.00
						CHANNELS 3 Zrotation Xrotation Yrotation
						JOINT LeftHand
						{
							OFFSET	 0.00	2.45542024364365	 0.00
							CHANNELS 3 Zrotation Xrotation Yrotation
							JOINT LeftHandThumb 
							{
								OFFSET	 0.00	0.00	 0.00
								CHANNELS 3 Zrotation Xrotation Yrotation
								End Site
								{
									OFFSET	 0.00	0.00	1.00000003353624
								}
							}
							JOINT L_Wrist_End 
							{
								OFFSET	 0.00	0.99999967115358	 0.00
								CHANNELS 3 Zrotation Xrotation Yrotation
								End Site 
								{
									OFFSET	 0.00	 0.00	 0.00
								}
							}
						}
					}
				}
			}
			JOINT RightShoulder
			{
				OFFSET	 0.00	 2.48462964506057	 0.00
				CHANNELS 3 Zrotation Xrotation Yrotation
				JOINT RightUpArm
				{
					OFFSET	 0.00	 1.24881979654096	 0.00
					CHANNELS 3 Zrotation Xrotation Yrotation
					JOINT RightForeArm
					{
						OFFSET	 0.00	2.59758046908119	 0.00
						CHANNELS 3 Zrotation Xrotation Yrotation
						JOINT RightHand
						{
							OFFSET	 0.00	2.45542024364365	 0.00
							CHANNELS 3 Zrotation Xrotation Yrotation
							JOINT RightHandThumb 
							{
								OFFSET	 0.00	0.00	 0.00
								CHANNELS 3 Zrotation Xrotation Yrotation
								End Site
								{
									OFFSET	 0.00	0.00	1.00000003353624
								}
							}
							JOINT R_Wrist_End 
							{
								OFFSET	 0.00	0.99999967115358	 0.00
								CHANNELS 3 Zrotation Xrotation Yrotation
								End Site 
								{
									OFFSET	 0.00	 0.00	 0.00
								}
							}
						}
					}
				}
			}
		}
	}
	JOINT LeftUpLeg
	{
		OFFSET	 1.2719394002717	 0.00	 0.00
		CHANNELS 3 Zrotation Xrotation Yrotation
		JOINT LeftLowLeg
		{
			OFFSET	 0.00	-4.3429100912261	 0.00
			CHANNELS 3 Zrotation Xrotation Yrotation
			JOINT LeftFoot
			{
				OFFSET	 0.00	-4.48767017425826	 0.00
				CHANNELS 3 Zrotation Xrotation Yrotation
				JOINT LeftToeBase
                {
                    OFFSET	 0.00	0.00	 1.51507020887566
                    CHANNELS 3 Zrotation Xrotation Yrotation
                    End Site 
                    {
                        OFFSET	 0.00	0.00	 0.75000010571191
                    }
                }
			}
		}
	}
	JOINT RightUpLeg
	{
		OFFSET	 -1.2719393604653	 0.00	 0.00
		CHANNELS 3 Zrotation Xrotation Yrotation
		JOINT RightLowLeg
		{
			OFFSET	 0.00	-4.3429100912261	 0.00
			CHANNELS 3 Zrotation Xrotation Yrotation
			JOINT RightFoot
			{
				OFFSET	 0.00	-4.48767017425826	 0.00
				CHANNELS 3 Zrotation Xrotation Yrotation
				JOINT RightToeBase
                {
                    OFFSET	 0.00	0.00	 1.51507020887566
                    CHANNELS 3 Zrotation Xrotation Yrotation
                    End Site 
                    {
                        OFFSET	 0.00	0.00	 0.749999965609858
                    }
                }   
			}
		}
	}
}
MOTION 
Frames:	10 
Frame Time: 0.02 
  -3.366830139160156 4.407250061035156 10.446700439453124 -22.5869 86.0005 26.4818 -0.347161 -11.5434 -3.49345 12.5846 23.5039 -4.11846 -27.7877 34.7965 51.0118 -63.3218 -78.0717 -61.8517 -107.6773 4.08067 -14.8253 4.24627 15.9315 -11.2742 0.0 39.2925 0.0 33.1259 8.98103 14.1308 0.0 0.0 0.0 0.0 0.0 0.0 106.298996 1.54139 0.101519 9.39034 14.8176 16.9844 0.0 16.2449 0.0 -10.4746 -4.90651 10.1854 0.0 0.0 0.0 0.0 0.0 0.0 8.81269 -10.1375 11.522 0.0 25.1151 0.0 -9.63173 9.26619 7.21634 0.0 -22.01938 0.0 9.00495 3.13343 13.3465 0.0 12.9042 0.0 16.5535 6.3082895 -22.0522 0.0 -12.09626 0.0 
  -3.37572998046875 4.40385986328125 10.450400390625 -22.4036 85.9674 25.7772 0.294893 -11.2086 -3.45903 11.931 22.0176 -4.06905 -28.0914 36.4636 51.1674 -64.3306 -79.1956 -62.0402 -106.8094 3.92752 -14.4953 5.65382 15.9455 -12.2364 0.0 36.5352 0.0 32.6454 8.2979 14.3941 0.0 0.0 0.0 0.0 0.0 0.0 105.8774 1.76938 -0.0491844 7.82253 15.2942 19.5296 0.0 16.3188 0.0 -11.5653 -5.77539 8.78076 0.0 0.0 0.0 0.0 0.0 0.0 8.77243 -9.45488 11.3752 0.0 23.7766 0.0 -9.38199 9.25942 7.15038 0.0 -22.322071 0.0 8.99921 3.22415 13.627 0.0 12.8108 0.0 16.4414 6.53572 -21.9148 0.0 -11.95933 0.0 
  -3.382309875488281 4.395719909667969 10.452099609375 -22.7401 85.8343 25.595 0.992031 -10.8907 -3.38908 11.3162 20.6335 -4.03679 -28.4213 38.153 51.3471 -65.2149 -80.3019 -62.2034 -105.9747 3.85007 -14.325 6.91244 16.0319 -12.9168 0.0 33.8627 0.0 32.6562 7.43027 14.8169 0.0 0.0 0.0 0.0 0.0 0.0 105.4285 1.90754 -0.279926 6.25931 15.8886 21.7126 0.0 16.5266 0.0 -12.5795 -6.03484 9.99483 0.0 0.0 0.0 0.0 0.0 0.0 8.76018 -8.53839 11.3424 0.0 22.1619 0.0 -8.87545 9.25057 7.31088 0.0 -22.48041 0.0 9.05125 3.37422 13.7892 0.0 12.7731 0.0 16.324 6.7940197 -21.6839 0.0 -11.900681 0.0 
  -3.387349853515625 4.383999938964844 10.4525 -23.233 85.6129 25.6069 1.70657 -10.7615 -3.25792 10.6372 19.6219 -4.08707 -28.178 39.8828 50.9908 -64.526 -81.422 -60.5038 -105.2261 4.04865 -13.7532 8.43578 15.8789 -14.3057 0.0 31.5858 0.0 32.8575 6.55254 15.7997 0.0 0.0 0.0 0.0 0.0 0.0 104.9888 2.06362 -0.324322 4.79321 16.5186 23.7352 0.0 16.6263 0.0 -13.571 -5.8391 9.35355 0.0 0.0 0.0 0.0 0.0 0.0 8.76298 -7.45769 11.4341 0.0 20.4016 0.0 -8.21443 9.21126 7.50574 0.0 -22.66871 0.0 9.15999 3.56796 13.9167 0.0 12.8395 0.0 16.2193 7.02334 -21.4754 0.0 -11.83121 0.0 
  -3.3900299072265625 4.3695001220703125 10.4522998046875 -23.4895 85.3236 25.4014 2.4298 -10.5296 -3.16452 9.98738 18.6034 -4.18601 -28.1846 41.5131 50.8805 -64.278 -82.4831 -59.3116 -104.7252 4.01536 -13.3683 9.99519 15.9106 -15.5741 0.0 29.3548 0.0 33.1285 6.46008 16.3641 0.0 0.0 0.0 0.0 0.0 0.0 104.6216 2.12007 -0.326537 3.18933 17.485 25.4552 0.0 16.8954 0.0 -14.7545 -6.32442 9.203 0.0 0.0 0.0 0.0 0.0 0.0 8.72682 -6.17071 11.8626 0.0 18.3811 0.0 -7.40004 9.18431 7.61192 0.0 -22.85735 0.0 9.28134 3.8466 14.1135 0.0 12.911 0.0 16.1808 7.18518 -21.3567 0.0 -11.65551 0.0 
  -3.391400146484375 4.353160095214844 10.4506005859375 -23.6579 85.0216 25.1685 3.13022 -10.1575 -3.08332 9.27577 17.2882 -4.23401 -28.0833 43.4237 50.611 -63.1639 -83.6658 -57.1192 -104.3403 3.97131 -12.7996 11.5509 16.0382 -16.8945 0.0 27.4414 0.0 33.9772 6.5995 17.3489 0.0 0.0 0.0 0.0 0.0 0.0 104.3496 2.07804 -0.547704 1.51741 18.5447 27.1309 0.0 17.0404 0.0 -16.1592 -6.21165 8.31143 0.0 0.0 0.0 0.0 0.0 0.0 8.64914 -4.84341 12.6925 0.0 16.3255 0.0 -6.67504 9.05825 7.49124 0.0 -22.89776 0.0 9.41624 4.12002 14.3316 0.0 13.0494 0.0 16.1521 7.26489 -21.2997 0.0 -11.49016 0.0 
  -3.3907699584960938 4.337699890136719 10.449599609375 -23.7045 84.7609 24.8623 3.8673 -9.64469 -3.025 8.40008 15.6725 -4.29157 -28.2597 45.4871 50.6579 -62.542 -85.009 -55.463 -104.1002 3.9152 -12.07 13.1675 16.0804 -18.3967 0.0 25.8305 0.0 35.1809 7.565 19.308 0.0 0.0 0.0 0.0 0.0 0.0 104.2893 2.10253 -0.869014 -0.324591 19.5908 28.5379 0.0 17.2691 0.0 -17.8454 -6.05636 7.25326 0.0 0.0 0.0 0.0 0.0 0.0 8.51003 -3.55701 13.7374 0.0 14.318 0.0 -6.7646 9.19864 6.97665 0.0 -23.40196 0.0 9.53601 4.31364 14.638 0.0 13.2789 0.0 16.179 7.3008 -21.3292 0.0 -11.40037 0.0 
  -3.38927001953125 4.321239929199219 10.45 -23.1856 84.5163 24.0057 4.41312 -9.33172 -2.95541 7.73849 14.533 -4.32633 -28.1899 47.1856 50.5025 -58.594 -86.0628 -50.6428 -103.933304 3.92629 -11.5102 14.6997 16.2036 -20.2697 0.0 24.6643 0.0 36.8604 8.55166 20.3614 0.0 0.0 0.0 0.0 0.0 0.0 104.0446 2.02802 -0.827175 -2.03776 20.735 30.4383 0.0 17.6867 0.0 -19.273 -6.05128 5.92182 0.0 0.0 0.0 0.0 0.0 0.0 8.34876 -2.30752 14.9685 0.0 12.5656 0.0 -5.65314 9.97305 5.93358 0.0 -23.873001 0.0 9.59378 4.49405 14.8733 0.0 13.5551 0.0 16.2711 7.25998 -21.3259 0.0 -11.20612 0.0 
  -3.3874200439453124 4.303949890136718 10.45280029296875 -22.2085 84.3125 22.8346 4.85041 -9.09397 -2.91382 7.06334 13.5182 -4.38051 -27.8672 48.8656 50.088 -50.3481 -87.0562 -41.4893 -103.7889 3.87752 -11.0412 16.1525 16.4512 -22.3039 0.0 24.1142 0.0 38.3382 8.96524 20.8557 0.0 0.0 0.0 0.0 0.0 0.0 103.8398 1.86924 -0.807664 -3.82256 21.9553 32.5064 0.0 18.112 0.0 -20.5075 -6.19625 5.02613 0.0 0.0 0.0 0.0 0.0 0.0 8.19638 -1.28197 15.9012 0.0 11.3248 0.0 -4.96228 10.4038105 4.70217 0.0 -23.48213 0.0 9.568 4.66148 14.6652 0.0 13.8157 0.0 16.1684 7.37251 -21.1003 0.0 -11.05321 0.0 
  -3.385060119628906 4.288070068359375 10.458299560546875 -21.0129 84.1983 21.507 5.24957 -8.93702 -2.8185 6.24166 12.5785 -4.4065 -27.1677 50.6382 49.2894 -30.6678 -87.9043 -20.9385 -103.5317 3.85265 -10.6042 17.4888 16.7495 -24.1906 0.0 24.1243 0.0 39.8508 8.59986 20.6806 0.0 0.0 0.0 0.0 0.0 0.0 103.7978 1.6667 -0.647948 -5.68109 23.0744 34.1104 0.0 18.452 0.0 -21.4377 -5.831 5.28372 0.0 0.0 0.0 0.0 0.0 0.0 8.08559 -0.649984 16.5239 0.0 10.7305 0.0 -5.10166 10.35627 4.40109 0.0 -23.20985 0.0 9.50011 4.86832 14.8369 0.0 13.8678 0.0 16.1507 7.44403 -21.2309 0.0 -11.07988 0.0 
